PathFileType	4	(X/Y/Z)	Kaydara																																																																																																																									
DataRate	CameraRate	NumFrames	NumMarkers	Units	OrigDataRate	OrigDataStartFrame	OrigNumFrames																																																																																																																					
30	30	4	41	mm	30	99	158																																																																																																																					
Frame#	Time	NABA_LFHD			NABA_RFHD			NABA_LBHD			NABA_RBHD			NABA_LFTShould			NABA_RFTShould			NABA_LRRShould			NABA_RRRShould			NABA_T10			NABA_STRN			NABA_TRUN			NABA_LSHO			NABA_LUPA			NABA_LELB			NABA_LFRM			NABA_LWRA			NABA_LWRB			NABA_LFIN			NABA_RSHO			NABA_RUPA			NABA_RELB			NABA_RFRM			NABA_RWRA			NABA_RWRB			NABA_RFIN			NABA_LFWT			NABA_RFWT			NABA_LBWT			NABA_RBWT			NABA_LTHI			NABA_LKNE			NABA_LSHN			NABA_LANK			NABA_LHEE			NABA_LTOE			NABA_RTHI			NABA_RKNE			NABA_RSHN			NABA_RANK			NABA_RHEE			NABA_RTOE		
		X1	Y1	Z1	X2	Y2	Z2	X3	Y3	Z3	X4	Y4	Z4	X5	Y5	Z5	X6	Y6	Z6	X7	Y7	Z7	X8	Y8	Z8	X9	Y9	Z9	X10	Y10	Z10	X11	Y11	Z11	X12	Y12	Z12	X13	Y13	Z13	X14	Y14	Z14	X15	Y15	Z15	X16	Y16	Z16	X17	Y17	Z17	X18	Y18	Z18	X19	Y19	Z19	X20	Y20	Z20	X21	Y21	Z21	X22	Y22	Z22	X23	Y23	Z23	X24	Y24	Z24	X25	Y25	Z25	X26	Y26	Z26	X27	Y27	Z27	X28	Y28	Z28	X29	Y29	Z29	X30	Y30	Z30	X31	Y31	Z31	X32	Y32	Z32	X33	Y33	Z33	X34	Y34	Z34	X35	Y35	Z35	X36	Y36	Z36	X37	Y37	Z37	X38	Y38	Z38	X39	Y39	Z39	X40	Y40	Z40	X41	Y41	Z41
																																																																																																																												
99	3.277	253.37742	1595.28122	335.88348	82.83815	1572.46597	339.52152	283.07482	1566.34537	216.10802	61.25315	1555.14984	240.92199	258.54446	1326.80023	300.38111	109.86934	1315.47363	297.16433	256.78907	1365.34622	175.68247	114.60958	1366.64383	180.11137	190.53106	1191.93871	135.39294	187.64057	1287.51984	356.57375	189.4721	1200.03418	421.81896	354.05617	1345.64331	234.50838	397.82013	1124.47754	160.61539	422.35332	1038.63663	169.48544	410.26527	975.6076	134.57852	400.79826	808.70735	172.80508	468.36575	822.68471	150.22259	454.19651	742.79373	164.57903	36.39934	1362.67197	244.36895	-70.0487	1174.70985	251.7548	-121.25276	1099.3779	350.68913	-110.68363	1018.5569	415.1989	5.56644	941.02112	492.67994	-50.1821	951.02219	543.08334	-9.46307	936.38725	574.44057	304.93462	933.85651	360.31174	43.95209	921.59859	331.0305	277.14935	975.13992	187.05015	107.40114	1006.65619	166.99427	322.7095	633.96946	318.68961	308.18127	511.91704	421.16459	267.58646	314.26874	419.14856	304.02843	182.34303	320.26115	248.64878	145.08111	255.56316	277.75356	74.28747	418.62213	80.05338	649.8896	158.24081	95.9208	475.43648	246.81702	121.43349	309.90782	210.60802	136.64063	123.82365	132.56883	191.53566	84.23687	70.17074	154.15505	57.3779	247.61759
100	3.31	254.39812	1589.80865	378.29456	83.79222	1567.35199	384.53465	282.04716	1563.25882	257.43572	60.59618	1552.10312	285.70827	259.387	1328.55164	337.25243	111.09438	1315.92194	334.60171	254.86958	1362.80472	212.94512	116.24323	1365.14709	217.30906	189.44084	1189.5668	176.02942	188.77375	1289.83582	393.9753	190.75251	1203.12721	459.92397	352.98927	1346.01593	269.06239	398.96828	1133.71681	183.9208	425.82836	1047.63145	187.11775	414.01821	984.58633	150.43859	409.42589	816.74728	187.25739	474.8452	831.86989	160.61085	463.33282	751.80832	175.36425	42.45212	1366.9162	280.13622	-78.33449	1191.17142	299.30561	-132.27203	1124.48097	404.94884	-115.23416	1049.5536	478.29674	10.31054	985.08377	554.1098	-41.23292	998.88657	607.36382	2.77246	987.90833	636.50368	305.25518	931.75987	403.33149	45.19078	917.69493	369.77554	278.19626	973.94455	229.32528	111.21013	1004.77478	207.96125	325.02682	631.9751	360.88737	307.0874	509.12987	463.42941	260.59155	312.6836	491.48472	298.00186	162.93587	422.91893	245.42055	114.36805	363.5186	262.56292	79.40294	539.21303	84.57103	649.53003	189.92794	97.83616	472.03197	273.09774	125.037	307.04416	228.30734	141.60133	126.36618	139.68538	199.583	89.87834	75.94218	155.04436	57.4819	248.98798
101	3.343	255.77961	1581.84219	421.43284	85.24739	1559.71634	429.314	282.01731	1556.63528	299.97633	60.83137	1545.69183	330.67581	261.17586	1326.57242	374.05457	113.74598	1312.37686	375.13458	252.72579	1355.90912	251.43763	117.7785	1358.40225	256.22314	188.37162	1183.36571	217.03644	192.50977	1287.37076	433.92902	195.01465	1199.41559	498.17043	352.13818	1341.77444	304.37021	398.311	1138.28636	210.70528	428.22628	1052.09496	208.20656	416.6293	988.56903	170.92873	417.90573	820.09727	207.70189	480.98309	836.87569	177.24283	473.93833	757.25136	193.52829	47.42094	1364.35593	317.43929	-84.25687	1199.50256	345.83073	-140.69578	1142.40936	456.55209	-118.45635	1074.58778	537.34043	13.81325	1019.63768	609.3343	-33.2	1039.53239	664.68796	13.4741	1030.83214	691.37596	305.69513	924.57176	445.94402	45.46347	910.77232	409.53171	278.82406	968.14468	271.29795	113.65484	998.94165	248.79091	329.49547	624.10877	400.81825	308.8018	500.79243	503.95058	254.31458	312.61272	559.84783	291.99099	151.9471	524.27704	243.21362	93.63333	470.74257	244.65908	93.48879	650.6604	88.34697	646.8335	224.22562	99.52453	466.85314	299.84995	128.56407	303.5906	245.75668	148.7302	128.7952	146.79773	209.51574	96.08303	82.9141	156.46017	57.48884	250.70154
102	3.377	257.92339	1572.27875	464.85214	87.47887	1550.41565	474.27212	282.80182	1548.0101	342.89917	61.93852	1537.41074	375.86975	262.70485	1318.80188	415.05398	116.76345	1303.68896	418.61732	251.04708	1346.30386	290.90353	119.31234	1349.07761	299.21658	188.01268	1174.05945	259.29165	196.89098	1278.84979	476.42982	200.45681	1189.15344	538.46497	351.79153	1333.44376	342.72331	397.07111	1136.35277	242.3983	430.31986	1050.79727	235.97147	419.3998	987.39075	197.79392	426.15231	818.17833	232.22431	487.29042	836.94153	199.64991	486.19556	758.44162	216.90701	51.37009	1355.47409	358.63323	-87.65932	1198.55537	391.34777	-146.60134	1150.15083	506.01486	-120.41095	1090.24887	592.68204	16.68863	1042.90825	661.71623	-27.18445	1068.99033	717.19681	21.22945	1062.76428	742.25159	306.71555	912.87262	488.59455	46.27619	902.29073	451.82575	279.81592	957.61765	313.02305	115.5967	990.28481	291.20165	331.80592	610.81024	441.35368	310.90157	488.16967	546.0947	250.94715	314.027	622.67448	287.93283	149.81788	617.10499	242.1471	83.07595	570.8569	229.77865	112.508	748.22235	91.56737	645.72868	258.25335	100.36358	462.09606	323.79379	130.56962	301.89968	260.77532	154.78292	133.19113	152.31317	218.23986	103.71131	89.17064	157.0191	57.36563	251.44459
